<mxfile host="app.diagrams.net" agent="Mozilla/5.0 (Macintosh; Intel Mac OS X 10_15_7) AppleWebKit/537.36 (KHTML, like Gecko) Chrome/136.0.0.0 Safari/537.36" version="27.0.9">
  <diagram name="Page-1" id="A3zh73i4j1TpFUD3K1uN">
    <mxGraphModel dx="942" dy="1663" grid="1" gridSize="10" guides="1" tooltips="1" connect="1" arrows="1" fold="1" page="1" pageScale="1" pageWidth="850" pageHeight="1100" math="0" shadow="0">
      <root>
        <mxCell id="0" />
        <mxCell id="1" parent="0" />
        <mxCell id="DLNXsr5lxC3770AfFGbQ-2" value="fact_patient" style="swimlane;fontStyle=0;childLayout=stackLayout;horizontal=1;startSize=30;horizontalStack=0;resizeParent=1;resizeParentMax=0;resizeLast=0;collapsible=1;marginBottom=0;whiteSpace=wrap;html=1;" parent="1" vertex="1">
          <mxGeometry x="350" y="-920" width="180" height="270" as="geometry">
            <mxRectangle x="210" y="70" width="170" height="30" as="alternateBounds" />
          </mxGeometry>
        </mxCell>
        <mxCell id="uM94AEK0M4l-UiJbQwfq-13" value="patient_id int (PK, FK1)" style="text;strokeColor=none;fillColor=none;align=left;verticalAlign=middle;spacingLeft=4;spacingRight=4;overflow=hidden;points=[[0,0.5],[1,0.5]];portConstraint=eastwest;rotatable=0;whiteSpace=wrap;html=1;" parent="DLNXsr5lxC3770AfFGbQ-2" vertex="1">
          <mxGeometry y="30" width="180" height="30" as="geometry" />
        </mxCell>
        <mxCell id="uM94AEK0M4l-UiJbQwfq-51" value="provider_id int (PK, FK2)" style="text;strokeColor=none;fillColor=none;align=left;verticalAlign=middle;spacingLeft=4;spacingRight=4;overflow=hidden;points=[[0,0.5],[1,0.5]];portConstraint=eastwest;rotatable=0;whiteSpace=wrap;html=1;" parent="DLNXsr5lxC3770AfFGbQ-2" vertex="1">
          <mxGeometry y="60" width="180" height="30" as="geometry" />
        </mxCell>
        <mxCell id="uqm6Zv8-JbMILIz2R01Y-5" value="begdate_id int (PK, FK3)" style="text;strokeColor=none;fillColor=none;align=left;verticalAlign=middle;spacingLeft=4;spacingRight=4;overflow=hidden;points=[[0,0.5],[1,0.5]];portConstraint=eastwest;rotatable=0;whiteSpace=wrap;html=1;" vertex="1" parent="DLNXsr5lxC3770AfFGbQ-2">
          <mxGeometry y="90" width="180" height="30" as="geometry" />
        </mxCell>
        <mxCell id="uqm6Zv8-JbMILIz2R01Y-41" value="enddate_id int (PK, FK4)" style="text;strokeColor=none;fillColor=none;align=left;verticalAlign=middle;spacingLeft=4;spacingRight=4;overflow=hidden;points=[[0,0.5],[1,0.5]];portConstraint=eastwest;rotatable=0;whiteSpace=wrap;html=1;" vertex="1" parent="DLNXsr5lxC3770AfFGbQ-2">
          <mxGeometry y="120" width="180" height="30" as="geometry" />
        </mxCell>
        <mxCell id="uM94AEK0M4l-UiJbQwfq-14" value="visit_count int" style="text;strokeColor=none;fillColor=none;align=left;verticalAlign=middle;spacingLeft=4;spacingRight=4;overflow=hidden;points=[[0,0.5],[1,0.5]];portConstraint=eastwest;rotatable=0;whiteSpace=wrap;html=1;" parent="DLNXsr5lxC3770AfFGbQ-2" vertex="1">
          <mxGeometry y="150" width="180" height="30" as="geometry" />
        </mxCell>
        <mxCell id="uM94AEK0M4l-UiJbQwfq-67" value="lab_count int" style="text;strokeColor=none;fillColor=none;align=left;verticalAlign=middle;spacingLeft=4;spacingRight=4;overflow=hidden;points=[[0,0.5],[1,0.5]];portConstraint=eastwest;rotatable=0;whiteSpace=wrap;html=1;" parent="DLNXsr5lxC3770AfFGbQ-2" vertex="1">
          <mxGeometry y="180" width="180" height="30" as="geometry" />
        </mxCell>
        <mxCell id="uM94AEK0M4l-UiJbQwfq-68" value="procedure_count int" style="text;strokeColor=none;fillColor=none;align=left;verticalAlign=middle;spacingLeft=4;spacingRight=4;overflow=hidden;points=[[0,0.5],[1,0.5]];portConstraint=eastwest;rotatable=0;whiteSpace=wrap;html=1;" parent="DLNXsr5lxC3770AfFGbQ-2" vertex="1">
          <mxGeometry y="210" width="180" height="30" as="geometry" />
        </mxCell>
        <mxCell id="uM94AEK0M4l-UiJbQwfq-74" value="diagnosis_count int" style="text;strokeColor=none;fillColor=none;align=left;verticalAlign=middle;spacingLeft=4;spacingRight=4;overflow=hidden;points=[[0,0.5],[1,0.5]];portConstraint=eastwest;rotatable=0;whiteSpace=wrap;html=1;" parent="DLNXsr5lxC3770AfFGbQ-2" vertex="1">
          <mxGeometry y="240" width="180" height="30" as="geometry" />
        </mxCell>
        <mxCell id="DLNXsr5lxC3770AfFGbQ-14" value="dim_time" style="swimlane;fontStyle=0;childLayout=stackLayout;horizontal=1;startSize=30;horizontalStack=0;resizeParent=1;resizeParentMax=0;resizeLast=0;collapsible=1;marginBottom=0;whiteSpace=wrap;html=1;" parent="1" vertex="1">
          <mxGeometry x="699" y="-920" width="140" height="240" as="geometry" />
        </mxCell>
        <mxCell id="DLNXsr5lxC3770AfFGbQ-15" value="date_id int auto (PK)" style="text;strokeColor=none;fillColor=none;align=left;verticalAlign=middle;spacingLeft=4;spacingRight=4;overflow=hidden;points=[[0,0.5],[1,0.5]];portConstraint=eastwest;rotatable=0;whiteSpace=wrap;html=1;" parent="DLNXsr5lxC3770AfFGbQ-14" vertex="1">
          <mxGeometry y="30" width="140" height="30" as="geometry" />
        </mxCell>
        <mxCell id="DLNXsr5lxC3770AfFGbQ-16" value="date date" style="text;strokeColor=none;fillColor=none;align=left;verticalAlign=middle;spacingLeft=4;spacingRight=4;overflow=hidden;points=[[0,0.5],[1,0.5]];portConstraint=eastwest;rotatable=0;whiteSpace=wrap;html=1;" parent="DLNXsr5lxC3770AfFGbQ-14" vertex="1">
          <mxGeometry y="60" width="140" height="30" as="geometry" />
        </mxCell>
        <mxCell id="DLNXsr5lxC3770AfFGbQ-17" value="day varchar" style="text;strokeColor=none;fillColor=none;align=left;verticalAlign=middle;spacingLeft=4;spacingRight=4;overflow=hidden;points=[[0,0.5],[1,0.5]];portConstraint=eastwest;rotatable=0;whiteSpace=wrap;html=1;" parent="DLNXsr5lxC3770AfFGbQ-14" vertex="1">
          <mxGeometry y="90" width="140" height="30" as="geometry" />
        </mxCell>
        <mxCell id="DLNXsr5lxC3770AfFGbQ-18" value="month varchar" style="text;strokeColor=none;fillColor=none;align=left;verticalAlign=middle;spacingLeft=4;spacingRight=4;overflow=hidden;points=[[0,0.5],[1,0.5]];portConstraint=eastwest;rotatable=0;whiteSpace=wrap;html=1;" parent="DLNXsr5lxC3770AfFGbQ-14" vertex="1">
          <mxGeometry y="120" width="140" height="30" as="geometry" />
        </mxCell>
        <mxCell id="DLNXsr5lxC3770AfFGbQ-20" value="day_of_month int" style="text;strokeColor=none;fillColor=none;align=left;verticalAlign=middle;spacingLeft=4;spacingRight=4;overflow=hidden;points=[[0,0.5],[1,0.5]];portConstraint=eastwest;rotatable=0;whiteSpace=wrap;html=1;" parent="DLNXsr5lxC3770AfFGbQ-14" vertex="1">
          <mxGeometry y="150" width="140" height="30" as="geometry" />
        </mxCell>
        <mxCell id="DLNXsr5lxC3770AfFGbQ-19" value="year int" style="text;strokeColor=none;fillColor=none;align=left;verticalAlign=middle;spacingLeft=4;spacingRight=4;overflow=hidden;points=[[0,0.5],[1,0.5]];portConstraint=eastwest;rotatable=0;whiteSpace=wrap;html=1;" parent="DLNXsr5lxC3770AfFGbQ-14" vertex="1">
          <mxGeometry y="180" width="140" height="30" as="geometry" />
        </mxCell>
        <mxCell id="DLNXsr5lxC3770AfFGbQ-21" value="quarter int" style="text;strokeColor=none;fillColor=none;align=left;verticalAlign=middle;spacingLeft=4;spacingRight=4;overflow=hidden;points=[[0,0.5],[1,0.5]];portConstraint=eastwest;rotatable=0;whiteSpace=wrap;html=1;" parent="DLNXsr5lxC3770AfFGbQ-14" vertex="1">
          <mxGeometry y="210" width="140" height="30" as="geometry" />
        </mxCell>
        <mxCell id="L_Xo5fy1KZ5IT5YEGmSx-4" value="dim_patient" style="swimlane;fontStyle=0;childLayout=stackLayout;horizontal=1;startSize=30;horizontalStack=0;resizeParent=1;resizeParentMax=0;resizeLast=0;collapsible=1;marginBottom=0;whiteSpace=wrap;html=1;" parent="1" vertex="1">
          <mxGeometry x="10" y="-830" width="140" height="180" as="geometry" />
        </mxCell>
        <mxCell id="L_Xo5fy1KZ5IT5YEGmSx-5" value="patient_id (PK)" style="text;strokeColor=none;fillColor=none;align=left;verticalAlign=middle;spacingLeft=4;spacingRight=4;overflow=hidden;points=[[0,0.5],[1,0.5]];portConstraint=eastwest;rotatable=0;whiteSpace=wrap;html=1;" parent="L_Xo5fy1KZ5IT5YEGmSx-4" vertex="1">
          <mxGeometry y="30" width="140" height="30" as="geometry" />
        </mxCell>
        <mxCell id="L_Xo5fy1KZ5IT5YEGmSx-6" value="first_name varchar" style="text;strokeColor=none;fillColor=none;align=left;verticalAlign=middle;spacingLeft=4;spacingRight=4;overflow=hidden;points=[[0,0.5],[1,0.5]];portConstraint=eastwest;rotatable=0;whiteSpace=wrap;html=1;" parent="L_Xo5fy1KZ5IT5YEGmSx-4" vertex="1">
          <mxGeometry y="60" width="140" height="30" as="geometry" />
        </mxCell>
        <mxCell id="L_Xo5fy1KZ5IT5YEGmSx-7" value="last_name&amp;nbsp;varchar" style="text;strokeColor=none;fillColor=none;align=left;verticalAlign=middle;spacingLeft=4;spacingRight=4;overflow=hidden;points=[[0,0.5],[1,0.5]];portConstraint=eastwest;rotatable=0;whiteSpace=wrap;html=1;" parent="L_Xo5fy1KZ5IT5YEGmSx-4" vertex="1">
          <mxGeometry y="90" width="140" height="30" as="geometry" />
        </mxCell>
        <mxCell id="L_Xo5fy1KZ5IT5YEGmSx-8" value="gender&amp;nbsp;varchar" style="text;strokeColor=none;fillColor=none;align=left;verticalAlign=middle;spacingLeft=4;spacingRight=4;overflow=hidden;points=[[0,0.5],[1,0.5]];portConstraint=eastwest;rotatable=0;whiteSpace=wrap;html=1;" parent="L_Xo5fy1KZ5IT5YEGmSx-4" vertex="1">
          <mxGeometry y="120" width="140" height="30" as="geometry" />
        </mxCell>
        <mxCell id="L_Xo5fy1KZ5IT5YEGmSx-9" value="dob date" style="text;strokeColor=none;fillColor=none;align=left;verticalAlign=middle;spacingLeft=4;spacingRight=4;overflow=hidden;points=[[0,0.5],[1,0.5]];portConstraint=eastwest;rotatable=0;whiteSpace=wrap;html=1;" parent="L_Xo5fy1KZ5IT5YEGmSx-4" vertex="1">
          <mxGeometry y="150" width="140" height="30" as="geometry" />
        </mxCell>
        <mxCell id="L_Xo5fy1KZ5IT5YEGmSx-10" value="dim_provider" style="swimlane;fontStyle=0;childLayout=stackLayout;horizontal=1;startSize=30;horizontalStack=0;resizeParent=1;resizeParentMax=0;resizeLast=0;collapsible=1;marginBottom=0;whiteSpace=wrap;html=1;" parent="1" vertex="1">
          <mxGeometry x="10" y="-615" width="140" height="150" as="geometry" />
        </mxCell>
        <mxCell id="L_Xo5fy1KZ5IT5YEGmSx-11" value="provider_id (PK)" style="text;strokeColor=none;fillColor=none;align=left;verticalAlign=middle;spacingLeft=4;spacingRight=4;overflow=hidden;points=[[0,0.5],[1,0.5]];portConstraint=eastwest;rotatable=0;whiteSpace=wrap;html=1;" parent="L_Xo5fy1KZ5IT5YEGmSx-10" vertex="1">
          <mxGeometry y="30" width="140" height="30" as="geometry" />
        </mxCell>
        <mxCell id="L_Xo5fy1KZ5IT5YEGmSx-12" value="first_name&amp;nbsp;varchar" style="text;strokeColor=none;fillColor=none;align=left;verticalAlign=middle;spacingLeft=4;spacingRight=4;overflow=hidden;points=[[0,0.5],[1,0.5]];portConstraint=eastwest;rotatable=0;whiteSpace=wrap;html=1;" parent="L_Xo5fy1KZ5IT5YEGmSx-10" vertex="1">
          <mxGeometry y="60" width="140" height="30" as="geometry" />
        </mxCell>
        <mxCell id="L_Xo5fy1KZ5IT5YEGmSx-13" value="last_name&amp;nbsp;varchar" style="text;strokeColor=none;fillColor=none;align=left;verticalAlign=middle;spacingLeft=4;spacingRight=4;overflow=hidden;points=[[0,0.5],[1,0.5]];portConstraint=eastwest;rotatable=0;whiteSpace=wrap;html=1;" parent="L_Xo5fy1KZ5IT5YEGmSx-10" vertex="1">
          <mxGeometry y="90" width="140" height="30" as="geometry" />
        </mxCell>
        <mxCell id="uqm6Zv8-JbMILIz2R01Y-32" value="specialty varchar" style="text;strokeColor=none;fillColor=none;align=left;verticalAlign=middle;spacingLeft=4;spacingRight=4;overflow=hidden;points=[[0,0.5],[1,0.5]];portConstraint=eastwest;rotatable=0;whiteSpace=wrap;html=1;" vertex="1" parent="L_Xo5fy1KZ5IT5YEGmSx-10">
          <mxGeometry y="120" width="140" height="30" as="geometry" />
        </mxCell>
        <mxCell id="L_Xo5fy1KZ5IT5YEGmSx-22" value="dim_diagnosis" style="swimlane;fontStyle=0;childLayout=stackLayout;horizontal=1;startSize=30;horizontalStack=0;resizeParent=1;resizeParentMax=0;resizeLast=0;collapsible=1;marginBottom=0;whiteSpace=wrap;html=1;" parent="1" vertex="1">
          <mxGeometry x="699.62" y="-20" width="140.38" height="120" as="geometry" />
        </mxCell>
        <mxCell id="L_Xo5fy1KZ5IT5YEGmSx-23" value="diagnosis_id (PK)" style="text;strokeColor=none;fillColor=none;align=left;verticalAlign=middle;spacingLeft=4;spacingRight=4;overflow=hidden;points=[[0,0.5],[1,0.5]];portConstraint=eastwest;rotatable=0;whiteSpace=wrap;html=1;" parent="L_Xo5fy1KZ5IT5YEGmSx-22" vertex="1">
          <mxGeometry y="30" width="140.38" height="30" as="geometry" />
        </mxCell>
        <mxCell id="L_Xo5fy1KZ5IT5YEGmSx-24" value="diag_name&amp;nbsp;varchar" style="text;strokeColor=none;fillColor=none;align=left;verticalAlign=middle;spacingLeft=4;spacingRight=4;overflow=hidden;points=[[0,0.5],[1,0.5]];portConstraint=eastwest;rotatable=0;whiteSpace=wrap;html=1;" parent="L_Xo5fy1KZ5IT5YEGmSx-22" vertex="1">
          <mxGeometry y="60" width="140.38" height="30" as="geometry" />
        </mxCell>
        <mxCell id="L_Xo5fy1KZ5IT5YEGmSx-25" value="icd10_code&amp;nbsp;varchar" style="text;strokeColor=none;fillColor=none;align=left;verticalAlign=middle;spacingLeft=4;spacingRight=4;overflow=hidden;points=[[0,0.5],[1,0.5]];portConstraint=eastwest;rotatable=0;whiteSpace=wrap;html=1;" parent="L_Xo5fy1KZ5IT5YEGmSx-22" vertex="1">
          <mxGeometry y="90" width="140.38" height="30" as="geometry" />
        </mxCell>
        <mxCell id="L_Xo5fy1KZ5IT5YEGmSx-48" value="&lt;font style=&quot;font-size: 18px;&quot;&gt;EMR Star Schema Diagram&lt;/font&gt;&lt;div&gt;&lt;font size=&quot;3&quot;&gt;CMPINF 2211: Foundations of Cloud Computing&lt;br&gt;&lt;/font&gt;&lt;div&gt;&lt;font size=&quot;3&quot;&gt;Lisa Over&lt;/font&gt;&lt;/div&gt;&lt;div&gt;&lt;font size=&quot;3&quot;&gt;May 28, 2025&lt;/font&gt;&lt;/div&gt;&lt;/div&gt;" style="rounded=0;whiteSpace=wrap;html=1;" parent="1" vertex="1">
          <mxGeometry x="10" y="-1042" width="830" height="110" as="geometry" />
        </mxCell>
        <mxCell id="uM94AEK0M4l-UiJbQwfq-5" value="fact_lab" style="swimlane;fontStyle=0;childLayout=stackLayout;horizontal=1;startSize=30;horizontalStack=0;resizeParent=1;resizeParentMax=0;resizeLast=0;collapsible=1;marginBottom=0;whiteSpace=wrap;html=1;" parent="1" vertex="1">
          <mxGeometry x="350" y="-617" width="180" height="240" as="geometry" />
        </mxCell>
        <mxCell id="uM94AEK0M4l-UiJbQwfq-52" value="provider_id int (PK, FK1)" style="text;strokeColor=none;fillColor=none;align=left;verticalAlign=middle;spacingLeft=4;spacingRight=4;overflow=hidden;points=[[0,0.5],[1,0.5]];portConstraint=eastwest;rotatable=0;whiteSpace=wrap;html=1;" parent="uM94AEK0M4l-UiJbQwfq-5" vertex="1">
          <mxGeometry y="30" width="180" height="30" as="geometry" />
        </mxCell>
        <mxCell id="uqm6Zv8-JbMILIz2R01Y-2" value="begdate varchar (FK2)" style="text;strokeColor=none;fillColor=none;align=left;verticalAlign=middle;spacingLeft=4;spacingRight=4;overflow=hidden;points=[[0,0.5],[1,0.5]];portConstraint=eastwest;rotatable=0;whiteSpace=wrap;html=1;" vertex="1" parent="uM94AEK0M4l-UiJbQwfq-5">
          <mxGeometry y="60" width="180" height="30" as="geometry" />
        </mxCell>
        <mxCell id="uM94AEK0M4l-UiJbQwfq-12" value="enddate_id int (FK3)" style="text;strokeColor=none;fillColor=none;align=left;verticalAlign=middle;spacingLeft=4;spacingRight=4;overflow=hidden;points=[[0,0.5],[1,0.5]];portConstraint=eastwest;rotatable=0;whiteSpace=wrap;html=1;" parent="uM94AEK0M4l-UiJbQwfq-5" vertex="1">
          <mxGeometry y="90" width="180" height="30" as="geometry" />
        </mxCell>
        <mxCell id="uM94AEK0M4l-UiJbQwfq-53" value="patient_count int" style="text;strokeColor=none;fillColor=none;align=left;verticalAlign=middle;spacingLeft=4;spacingRight=4;overflow=hidden;points=[[0,0.5],[1,0.5]];portConstraint=eastwest;rotatable=0;whiteSpace=wrap;html=1;" parent="uM94AEK0M4l-UiJbQwfq-5" vertex="1">
          <mxGeometry y="120" width="180" height="30" as="geometry" />
        </mxCell>
        <mxCell id="uqm6Zv8-JbMILIz2R01Y-10" value="visit_count int" style="text;strokeColor=none;fillColor=none;align=left;verticalAlign=middle;spacingLeft=4;spacingRight=4;overflow=hidden;points=[[0,0.5],[1,0.5]];portConstraint=eastwest;rotatable=0;whiteSpace=wrap;html=1;" vertex="1" parent="uM94AEK0M4l-UiJbQwfq-5">
          <mxGeometry y="150" width="180" height="30" as="geometry" />
        </mxCell>
        <mxCell id="uM94AEK0M4l-UiJbQwfq-7" value="lab_id int (FK4)" style="text;strokeColor=none;fillColor=none;align=left;verticalAlign=middle;spacingLeft=4;spacingRight=4;overflow=hidden;points=[[0,0.5],[1,0.5]];portConstraint=eastwest;rotatable=0;whiteSpace=wrap;html=1;" parent="uM94AEK0M4l-UiJbQwfq-5" vertex="1">
          <mxGeometry y="180" width="180" height="30" as="geometry" />
        </mxCell>
        <mxCell id="uM94AEK0M4l-UiJbQwfq-8" value="lab_count int" style="text;strokeColor=none;fillColor=none;align=left;verticalAlign=middle;spacingLeft=4;spacingRight=4;overflow=hidden;points=[[0,0.5],[1,0.5]];portConstraint=eastwest;rotatable=0;whiteSpace=wrap;html=1;" parent="uM94AEK0M4l-UiJbQwfq-5" vertex="1">
          <mxGeometry y="210" width="180" height="30" as="geometry" />
        </mxCell>
        <mxCell id="L_Xo5fy1KZ5IT5YEGmSx-30" value="dim_lab" style="swimlane;fontStyle=0;childLayout=stackLayout;horizontal=1;startSize=30;horizontalStack=0;resizeParent=1;resizeParentMax=0;resizeLast=0;collapsible=1;marginBottom=0;whiteSpace=wrap;html=1;" parent="1" vertex="1">
          <mxGeometry x="699.62" y="-540" width="140.38" height="120" as="geometry" />
        </mxCell>
        <mxCell id="L_Xo5fy1KZ5IT5YEGmSx-31" value="lab_id (PK)" style="text;strokeColor=none;fillColor=none;align=left;verticalAlign=middle;spacingLeft=4;spacingRight=4;overflow=hidden;points=[[0,0.5],[1,0.5]];portConstraint=eastwest;rotatable=0;whiteSpace=wrap;html=1;" parent="L_Xo5fy1KZ5IT5YEGmSx-30" vertex="1">
          <mxGeometry y="30" width="140.38" height="30" as="geometry" />
        </mxCell>
        <mxCell id="L_Xo5fy1KZ5IT5YEGmSx-32" value="lab_name&amp;nbsp;varchar" style="text;strokeColor=none;fillColor=none;align=left;verticalAlign=middle;spacingLeft=4;spacingRight=4;overflow=hidden;points=[[0,0.5],[1,0.5]];portConstraint=eastwest;rotatable=0;whiteSpace=wrap;html=1;" parent="L_Xo5fy1KZ5IT5YEGmSx-30" vertex="1">
          <mxGeometry y="60" width="140.38" height="30" as="geometry" />
        </mxCell>
        <mxCell id="L_Xo5fy1KZ5IT5YEGmSx-33" value="cpt_code&amp;nbsp;varchar" style="text;strokeColor=none;fillColor=none;align=left;verticalAlign=middle;spacingLeft=4;spacingRight=4;overflow=hidden;points=[[0,0.5],[1,0.5]];portConstraint=eastwest;rotatable=0;whiteSpace=wrap;html=1;" parent="L_Xo5fy1KZ5IT5YEGmSx-30" vertex="1">
          <mxGeometry y="90" width="140.38" height="30" as="geometry" />
        </mxCell>
        <mxCell id="L_Xo5fy1KZ5IT5YEGmSx-18" value="dim_procedure" style="swimlane;fontStyle=0;childLayout=stackLayout;horizontal=1;startSize=30;horizontalStack=0;resizeParent=1;resizeParentMax=0;resizeLast=0;collapsible=1;marginBottom=0;whiteSpace=wrap;html=1;" parent="1" vertex="1">
          <mxGeometry x="699.62" y="-312" width="140.38" height="150" as="geometry" />
        </mxCell>
        <mxCell id="L_Xo5fy1KZ5IT5YEGmSx-19" value="procedure_id (PK)" style="text;strokeColor=none;fillColor=none;align=left;verticalAlign=middle;spacingLeft=4;spacingRight=4;overflow=hidden;points=[[0,0.5],[1,0.5]];portConstraint=eastwest;rotatable=0;whiteSpace=wrap;html=1;" parent="L_Xo5fy1KZ5IT5YEGmSx-18" vertex="1">
          <mxGeometry y="30" width="140.38" height="30" as="geometry" />
        </mxCell>
        <mxCell id="L_Xo5fy1KZ5IT5YEGmSx-20" value="proc_name&amp;nbsp;varchar" style="text;strokeColor=none;fillColor=none;align=left;verticalAlign=middle;spacingLeft=4;spacingRight=4;overflow=hidden;points=[[0,0.5],[1,0.5]];portConstraint=eastwest;rotatable=0;whiteSpace=wrap;html=1;" parent="L_Xo5fy1KZ5IT5YEGmSx-18" vertex="1">
          <mxGeometry y="60" width="140.38" height="30" as="geometry" />
        </mxCell>
        <mxCell id="L_Xo5fy1KZ5IT5YEGmSx-21" value="description&amp;nbsp;varchar" style="text;strokeColor=none;fillColor=none;align=left;verticalAlign=middle;spacingLeft=4;spacingRight=4;overflow=hidden;points=[[0,0.5],[1,0.5]];portConstraint=eastwest;rotatable=0;whiteSpace=wrap;html=1;" parent="L_Xo5fy1KZ5IT5YEGmSx-18" vertex="1">
          <mxGeometry y="90" width="140.38" height="30" as="geometry" />
        </mxCell>
        <mxCell id="L_Xo5fy1KZ5IT5YEGmSx-36" value="icd10_code&amp;nbsp;varchar" style="text;strokeColor=none;fillColor=none;align=left;verticalAlign=middle;spacingLeft=4;spacingRight=4;overflow=hidden;points=[[0,0.5],[1,0.5]];portConstraint=eastwest;rotatable=0;whiteSpace=wrap;html=1;" parent="L_Xo5fy1KZ5IT5YEGmSx-18" vertex="1">
          <mxGeometry y="120" width="140.38" height="30" as="geometry" />
        </mxCell>
        <mxCell id="uM94AEK0M4l-UiJbQwfq-77" value="" style="endArrow=none;html=1;rounded=0;exitX=0;exitY=0.5;exitDx=0;exitDy=0;entryX=1;entryY=0.5;entryDx=0;entryDy=0;" parent="1" source="L_Xo5fy1KZ5IT5YEGmSx-31" target="uM94AEK0M4l-UiJbQwfq-7" edge="1">
          <mxGeometry relative="1" as="geometry">
            <mxPoint x="731" y="-450" as="sourcePoint" />
            <mxPoint x="570" y="-420" as="targetPoint" />
          </mxGeometry>
        </mxCell>
        <mxCell id="uM94AEK0M4l-UiJbQwfq-78" value="N" style="resizable=0;html=1;whiteSpace=wrap;align=right;verticalAlign=bottom;" parent="uM94AEK0M4l-UiJbQwfq-77" connectable="0" vertex="1">
          <mxGeometry x="1" relative="1" as="geometry" />
        </mxCell>
        <mxCell id="uM94AEK0M4l-UiJbQwfq-79" value="" style="endArrow=none;html=1;rounded=0;exitX=0;exitY=0.5;exitDx=0;exitDy=0;entryX=1;entryY=0.5;entryDx=0;entryDy=0;" parent="1" source="L_Xo5fy1KZ5IT5YEGmSx-19" target="uqm6Zv8-JbMILIz2R01Y-17" edge="1">
          <mxGeometry relative="1" as="geometry">
            <mxPoint x="741" y="-130" as="sourcePoint" />
            <mxPoint x="530" y="570" as="targetPoint" />
          </mxGeometry>
        </mxCell>
        <mxCell id="uM94AEK0M4l-UiJbQwfq-80" value="N" style="resizable=0;html=1;whiteSpace=wrap;align=right;verticalAlign=bottom;" parent="uM94AEK0M4l-UiJbQwfq-79" connectable="0" vertex="1">
          <mxGeometry x="1" relative="1" as="geometry" />
        </mxCell>
        <mxCell id="uM94AEK0M4l-UiJbQwfq-81" value="" style="endArrow=none;html=1;rounded=0;exitX=0;exitY=0.5;exitDx=0;exitDy=0;entryX=1;entryY=0.5;entryDx=0;entryDy=0;" parent="1" source="L_Xo5fy1KZ5IT5YEGmSx-23" target="uqm6Zv8-JbMILIz2R01Y-25" edge="1">
          <mxGeometry relative="1" as="geometry">
            <mxPoint x="731" y="200" as="sourcePoint" />
            <mxPoint x="570" y="230" as="targetPoint" />
          </mxGeometry>
        </mxCell>
        <mxCell id="uM94AEK0M4l-UiJbQwfq-82" value="N" style="resizable=0;html=1;whiteSpace=wrap;align=right;verticalAlign=bottom;" parent="uM94AEK0M4l-UiJbQwfq-81" connectable="0" vertex="1">
          <mxGeometry x="1" relative="1" as="geometry" />
        </mxCell>
        <mxCell id="uM94AEK0M4l-UiJbQwfq-84" value="" style="edgeStyle=entityRelationEdgeStyle;fontSize=12;html=1;endArrow=ERzeroToMany;startArrow=ERmandOne;rounded=0;entryX=0;entryY=0.5;entryDx=0;entryDy=0;exitX=1;exitY=0.5;exitDx=0;exitDy=0;" parent="1" source="L_Xo5fy1KZ5IT5YEGmSx-5" target="uM94AEK0M4l-UiJbQwfq-13" edge="1">
          <mxGeometry width="100" height="100" relative="1" as="geometry">
            <mxPoint x="200" y="-670" as="sourcePoint" />
            <mxPoint x="300" y="-770" as="targetPoint" />
          </mxGeometry>
        </mxCell>
        <mxCell id="uM94AEK0M4l-UiJbQwfq-85" value="" style="edgeStyle=entityRelationEdgeStyle;fontSize=12;html=1;endArrow=ERzeroToMany;startArrow=ERmandOne;rounded=0;entryX=0;entryY=0.5;entryDx=0;entryDy=0;exitX=1;exitY=0.5;exitDx=0;exitDy=0;" parent="1" source="L_Xo5fy1KZ5IT5YEGmSx-11" target="uM94AEK0M4l-UiJbQwfq-52" edge="1">
          <mxGeometry width="100" height="100" relative="1" as="geometry">
            <mxPoint x="180" y="-198" as="sourcePoint" />
            <mxPoint x="341" y="-620" as="targetPoint" />
          </mxGeometry>
        </mxCell>
        <mxCell id="uM94AEK0M4l-UiJbQwfq-89" value="" style="edgeStyle=entityRelationEdgeStyle;fontSize=12;html=1;endArrow=ERzeroToMany;startArrow=ERmandOne;rounded=0;entryX=0;entryY=0.5;entryDx=0;entryDy=0;exitX=1;exitY=0.5;exitDx=0;exitDy=0;" parent="1" source="L_Xo5fy1KZ5IT5YEGmSx-11" target="uM94AEK0M4l-UiJbQwfq-51" edge="1">
          <mxGeometry width="100" height="100" relative="1" as="geometry">
            <mxPoint x="119.93" y="-363" as="sourcePoint" />
            <mxPoint x="330.93" y="-460" as="targetPoint" />
          </mxGeometry>
        </mxCell>
        <mxCell id="uqm6Zv8-JbMILIz2R01Y-11" value="fact_procedure" style="swimlane;fontStyle=0;childLayout=stackLayout;horizontal=1;startSize=30;horizontalStack=0;resizeParent=1;resizeParentMax=0;resizeLast=0;collapsible=1;marginBottom=0;whiteSpace=wrap;html=1;" vertex="1" parent="1">
          <mxGeometry x="350" y="-359" width="180" height="240" as="geometry" />
        </mxCell>
        <mxCell id="uqm6Zv8-JbMILIz2R01Y-12" value="provider_id int (PK, FK1)" style="text;strokeColor=none;fillColor=none;align=left;verticalAlign=middle;spacingLeft=4;spacingRight=4;overflow=hidden;points=[[0,0.5],[1,0.5]];portConstraint=eastwest;rotatable=0;whiteSpace=wrap;html=1;" vertex="1" parent="uqm6Zv8-JbMILIz2R01Y-11">
          <mxGeometry y="30" width="180" height="30" as="geometry" />
        </mxCell>
        <mxCell id="uqm6Zv8-JbMILIz2R01Y-13" value="begdate_id int (FK2)" style="text;strokeColor=none;fillColor=none;align=left;verticalAlign=middle;spacingLeft=4;spacingRight=4;overflow=hidden;points=[[0,0.5],[1,0.5]];portConstraint=eastwest;rotatable=0;whiteSpace=wrap;html=1;" vertex="1" parent="uqm6Zv8-JbMILIz2R01Y-11">
          <mxGeometry y="60" width="180" height="30" as="geometry" />
        </mxCell>
        <mxCell id="uqm6Zv8-JbMILIz2R01Y-14" value="enddate_id int (FK3)" style="text;strokeColor=none;fillColor=none;align=left;verticalAlign=middle;spacingLeft=4;spacingRight=4;overflow=hidden;points=[[0,0.5],[1,0.5]];portConstraint=eastwest;rotatable=0;whiteSpace=wrap;html=1;" vertex="1" parent="uqm6Zv8-JbMILIz2R01Y-11">
          <mxGeometry y="90" width="180" height="30" as="geometry" />
        </mxCell>
        <mxCell id="uqm6Zv8-JbMILIz2R01Y-15" value="patient_count int" style="text;strokeColor=none;fillColor=none;align=left;verticalAlign=middle;spacingLeft=4;spacingRight=4;overflow=hidden;points=[[0,0.5],[1,0.5]];portConstraint=eastwest;rotatable=0;whiteSpace=wrap;html=1;" vertex="1" parent="uqm6Zv8-JbMILIz2R01Y-11">
          <mxGeometry y="120" width="180" height="30" as="geometry" />
        </mxCell>
        <mxCell id="uqm6Zv8-JbMILIz2R01Y-16" value="visit_count int" style="text;strokeColor=none;fillColor=none;align=left;verticalAlign=middle;spacingLeft=4;spacingRight=4;overflow=hidden;points=[[0,0.5],[1,0.5]];portConstraint=eastwest;rotatable=0;whiteSpace=wrap;html=1;" vertex="1" parent="uqm6Zv8-JbMILIz2R01Y-11">
          <mxGeometry y="150" width="180" height="30" as="geometry" />
        </mxCell>
        <mxCell id="uqm6Zv8-JbMILIz2R01Y-17" value="procedure_id int (FK4)" style="text;strokeColor=none;fillColor=none;align=left;verticalAlign=middle;spacingLeft=4;spacingRight=4;overflow=hidden;points=[[0,0.5],[1,0.5]];portConstraint=eastwest;rotatable=0;whiteSpace=wrap;html=1;" vertex="1" parent="uqm6Zv8-JbMILIz2R01Y-11">
          <mxGeometry y="180" width="180" height="30" as="geometry" />
        </mxCell>
        <mxCell id="uqm6Zv8-JbMILIz2R01Y-18" value="procedure_count int" style="text;strokeColor=none;fillColor=none;align=left;verticalAlign=middle;spacingLeft=4;spacingRight=4;overflow=hidden;points=[[0,0.5],[1,0.5]];portConstraint=eastwest;rotatable=0;whiteSpace=wrap;html=1;" vertex="1" parent="uqm6Zv8-JbMILIz2R01Y-11">
          <mxGeometry y="210" width="180" height="30" as="geometry" />
        </mxCell>
        <mxCell id="uqm6Zv8-JbMILIz2R01Y-19" value="fact_diagnosis" style="swimlane;fontStyle=0;childLayout=stackLayout;horizontal=1;startSize=30;horizontalStack=0;resizeParent=1;resizeParentMax=0;resizeLast=0;collapsible=1;marginBottom=0;whiteSpace=wrap;html=1;" vertex="1" parent="1">
          <mxGeometry x="350" y="-97" width="180" height="240" as="geometry" />
        </mxCell>
        <mxCell id="uqm6Zv8-JbMILIz2R01Y-20" value="provider_id int (PK, FK1)" style="text;strokeColor=none;fillColor=none;align=left;verticalAlign=middle;spacingLeft=4;spacingRight=4;overflow=hidden;points=[[0,0.5],[1,0.5]];portConstraint=eastwest;rotatable=0;whiteSpace=wrap;html=1;" vertex="1" parent="uqm6Zv8-JbMILIz2R01Y-19">
          <mxGeometry y="30" width="180" height="30" as="geometry" />
        </mxCell>
        <mxCell id="uqm6Zv8-JbMILIz2R01Y-21" value="begdate_id int (FK2)" style="text;strokeColor=none;fillColor=none;align=left;verticalAlign=middle;spacingLeft=4;spacingRight=4;overflow=hidden;points=[[0,0.5],[1,0.5]];portConstraint=eastwest;rotatable=0;whiteSpace=wrap;html=1;" vertex="1" parent="uqm6Zv8-JbMILIz2R01Y-19">
          <mxGeometry y="60" width="180" height="30" as="geometry" />
        </mxCell>
        <mxCell id="uqm6Zv8-JbMILIz2R01Y-22" value="enddate_id int (FK3)" style="text;strokeColor=none;fillColor=none;align=left;verticalAlign=middle;spacingLeft=4;spacingRight=4;overflow=hidden;points=[[0,0.5],[1,0.5]];portConstraint=eastwest;rotatable=0;whiteSpace=wrap;html=1;" vertex="1" parent="uqm6Zv8-JbMILIz2R01Y-19">
          <mxGeometry y="90" width="180" height="30" as="geometry" />
        </mxCell>
        <mxCell id="uqm6Zv8-JbMILIz2R01Y-23" value="patient_count int" style="text;strokeColor=none;fillColor=none;align=left;verticalAlign=middle;spacingLeft=4;spacingRight=4;overflow=hidden;points=[[0,0.5],[1,0.5]];portConstraint=eastwest;rotatable=0;whiteSpace=wrap;html=1;" vertex="1" parent="uqm6Zv8-JbMILIz2R01Y-19">
          <mxGeometry y="120" width="180" height="30" as="geometry" />
        </mxCell>
        <mxCell id="uqm6Zv8-JbMILIz2R01Y-24" value="visit_count int" style="text;strokeColor=none;fillColor=none;align=left;verticalAlign=middle;spacingLeft=4;spacingRight=4;overflow=hidden;points=[[0,0.5],[1,0.5]];portConstraint=eastwest;rotatable=0;whiteSpace=wrap;html=1;" vertex="1" parent="uqm6Zv8-JbMILIz2R01Y-19">
          <mxGeometry y="150" width="180" height="30" as="geometry" />
        </mxCell>
        <mxCell id="uqm6Zv8-JbMILIz2R01Y-25" value="diagnosis_id int (FK4)" style="text;strokeColor=none;fillColor=none;align=left;verticalAlign=middle;spacingLeft=4;spacingRight=4;overflow=hidden;points=[[0,0.5],[1,0.5]];portConstraint=eastwest;rotatable=0;whiteSpace=wrap;html=1;" vertex="1" parent="uqm6Zv8-JbMILIz2R01Y-19">
          <mxGeometry y="180" width="180" height="30" as="geometry" />
        </mxCell>
        <mxCell id="uqm6Zv8-JbMILIz2R01Y-26" value="diagnosis_frequency decimal" style="text;strokeColor=none;fillColor=none;align=left;verticalAlign=middle;spacingLeft=4;spacingRight=4;overflow=hidden;points=[[0,0.5],[1,0.5]];portConstraint=eastwest;rotatable=0;whiteSpace=wrap;html=1;" vertex="1" parent="uqm6Zv8-JbMILIz2R01Y-19">
          <mxGeometry y="210" width="180" height="30" as="geometry" />
        </mxCell>
        <mxCell id="uqm6Zv8-JbMILIz2R01Y-33" value="" style="endArrow=none;html=1;rounded=0;exitX=0;exitY=0.5;exitDx=0;exitDy=0;entryX=1;entryY=0.5;entryDx=0;entryDy=0;" edge="1" parent="1" source="DLNXsr5lxC3770AfFGbQ-15" target="uqm6Zv8-JbMILIz2R01Y-5">
          <mxGeometry relative="1" as="geometry">
            <mxPoint x="631" y="-685" as="sourcePoint" />
            <mxPoint x="590" y="-700" as="targetPoint" />
          </mxGeometry>
        </mxCell>
        <mxCell id="uqm6Zv8-JbMILIz2R01Y-34" value="N" style="resizable=0;html=1;whiteSpace=wrap;align=right;verticalAlign=bottom;" connectable="0" vertex="1" parent="uqm6Zv8-JbMILIz2R01Y-33">
          <mxGeometry x="1" relative="1" as="geometry" />
        </mxCell>
        <mxCell id="uqm6Zv8-JbMILIz2R01Y-35" value="" style="edgeStyle=entityRelationEdgeStyle;fontSize=12;html=1;endArrow=ERmandOne;startArrow=ERmandOne;rounded=0;entryX=0;entryY=0.5;entryDx=0;entryDy=0;exitX=1;exitY=0.5;exitDx=0;exitDy=0;" edge="1" parent="1" source="uqm6Zv8-JbMILIz2R01Y-2" target="DLNXsr5lxC3770AfFGbQ-15">
          <mxGeometry width="100" height="100" relative="1" as="geometry">
            <mxPoint x="410" y="-540" as="sourcePoint" />
            <mxPoint x="510" y="-640" as="targetPoint" />
          </mxGeometry>
        </mxCell>
        <mxCell id="uqm6Zv8-JbMILIz2R01Y-36" value="" style="edgeStyle=entityRelationEdgeStyle;fontSize=12;html=1;endArrow=ERmandOne;startArrow=ERmandOne;rounded=0;entryX=0;entryY=0.5;entryDx=0;entryDy=0;exitX=1;exitY=0.5;exitDx=0;exitDy=0;" edge="1" parent="1" source="uM94AEK0M4l-UiJbQwfq-12" target="DLNXsr5lxC3770AfFGbQ-15">
          <mxGeometry width="100" height="100" relative="1" as="geometry">
            <mxPoint x="590" y="-350" as="sourcePoint" />
            <mxPoint x="700" y="-670" as="targetPoint" />
          </mxGeometry>
        </mxCell>
        <mxCell id="uqm6Zv8-JbMILIz2R01Y-37" value="" style="edgeStyle=entityRelationEdgeStyle;fontSize=12;html=1;endArrow=ERmandOne;startArrow=ERmandOne;rounded=0;exitX=1;exitY=0.5;exitDx=0;exitDy=0;entryX=0;entryY=0.5;entryDx=0;entryDy=0;" edge="1" parent="1" source="uqm6Zv8-JbMILIz2R01Y-13" target="DLNXsr5lxC3770AfFGbQ-15">
          <mxGeometry width="100" height="100" relative="1" as="geometry">
            <mxPoint x="530" y="-300" as="sourcePoint" />
            <mxPoint x="609" y="-890" as="targetPoint" />
          </mxGeometry>
        </mxCell>
        <mxCell id="uqm6Zv8-JbMILIz2R01Y-38" value="" style="edgeStyle=entityRelationEdgeStyle;fontSize=12;html=1;endArrow=ERmandOne;startArrow=ERmandOne;rounded=0;entryX=0;entryY=0.5;entryDx=0;entryDy=0;exitX=1;exitY=0.5;exitDx=0;exitDy=0;" edge="1" parent="1" source="uqm6Zv8-JbMILIz2R01Y-14" target="DLNXsr5lxC3770AfFGbQ-15">
          <mxGeometry width="100" height="100" relative="1" as="geometry">
            <mxPoint x="530" y="-270" as="sourcePoint" />
            <mxPoint x="639" y="-590" as="targetPoint" />
          </mxGeometry>
        </mxCell>
        <mxCell id="uqm6Zv8-JbMILIz2R01Y-39" value="" style="edgeStyle=entityRelationEdgeStyle;fontSize=12;html=1;endArrow=ERmandOne;startArrow=ERmandOne;rounded=0;exitX=1;exitY=0.5;exitDx=0;exitDy=0;entryX=0;entryY=0.5;entryDx=0;entryDy=0;" edge="1" parent="1" source="uqm6Zv8-JbMILIz2R01Y-21" target="DLNXsr5lxC3770AfFGbQ-15">
          <mxGeometry width="100" height="100" relative="1" as="geometry">
            <mxPoint x="530" y="218" as="sourcePoint" />
            <mxPoint x="620" y="-880" as="targetPoint" />
          </mxGeometry>
        </mxCell>
        <mxCell id="uqm6Zv8-JbMILIz2R01Y-40" value="" style="edgeStyle=entityRelationEdgeStyle;fontSize=12;html=1;endArrow=ERmandOne;startArrow=ERmandOne;rounded=0;entryX=0;entryY=0.5;entryDx=0;entryDy=0;exitX=1;exitY=0.5;exitDx=0;exitDy=0;" edge="1" parent="1" source="uqm6Zv8-JbMILIz2R01Y-22" target="DLNXsr5lxC3770AfFGbQ-15">
          <mxGeometry width="100" height="100" relative="1" as="geometry">
            <mxPoint x="530" y="248" as="sourcePoint" />
            <mxPoint x="639" y="-330" as="targetPoint" />
          </mxGeometry>
        </mxCell>
      </root>
    </mxGraphModel>
  </diagram>
</mxfile>
